<?xml version="1.0" encoding="utf-8" standalone="no"?>
<!DOCTYPE svg PUBLIC "-//W3C//DTD SVG 1.1//EN"
  "http://www.w3.org/Graphics/SVG/1.1/DTD/svg11.dtd">
<svg xmlns:xlink="http://www.w3.org/1999/xlink" width="504pt" height="360pt" viewBox="0 0 504 360" xmlns="http://www.w3.org/2000/svg" version="1.1">
 <metadata>
  <rdf:RDF xmlns:dc="http://purl.org/dc/elements/1.1/" xmlns:cc="http://creativecommons.org/ns#" xmlns:rdf="http://www.w3.org/1999/02/22-rdf-syntax-ns#">
   <cc:Work>
    <dc:type rdf:resource="http://purl.org/dc/dcmitype/StillImage"/>
    <dc:date>2023-02-06T17:48:01.137658</dc:date>
    <dc:format>image/svg+xml</dc:format>
    <dc:creator>
     <cc:Agent>
      <dc:title>Matplotlib v3.6.3, https://matplotlib.org/</dc:title>
     </cc:Agent>
    </dc:creator>
   </cc:Work>
  </rdf:RDF>
 </metadata>
 <defs>
  <style type="text/css">*{stroke-linejoin: round; stroke-linecap: butt}</style>
 </defs>
 <g id="figure_1">
  <g id="patch_1">
   <path d="M 0 360 
L 504 360 
L 504 0 
L 0 0 
z
" style="fill: #ffffff"/>
  </g>
  <g id="axes_1">
   <g id="patch_2">
    <path d="M 63 320.4 
L 453.6 320.4 
L 453.6 43.2 
L 63 43.2 
z
" style="fill: #ffffff"/>
   </g>
   <g id="matplotlib.axis_1">
    <g id="xtick_1">
     <g id="text_1">
      <!-- 0 -->
      <g style="fill: #262626" transform="translate(70.254709 334.557813) scale(0.1 -0.1)">
       <defs>
        <path id="ArialMT-30" d="M 266 2259 
Q 266 3072 433 3567 
Q 600 4063 929 4331 
Q 1259 4600 1759 4600 
Q 2128 4600 2406 4451 
Q 2684 4303 2865 4023 
Q 3047 3744 3150 3342 
Q 3253 2941 3253 2259 
Q 3253 1453 3087 958 
Q 2922 463 2592 192 
Q 2263 -78 1759 -78 
Q 1097 -78 719 397 
Q 266 969 266 2259 
z
M 844 2259 
Q 844 1131 1108 757 
Q 1372 384 1759 384 
Q 2147 384 2411 759 
Q 2675 1134 2675 2259 
Q 2675 3391 2411 3762 
Q 2147 4134 1753 4134 
Q 1366 4134 1134 3806 
Q 844 3388 844 2259 
z
" transform="scale(0.015625)"/>
       </defs>
       <use xlink:href="#ArialMT-30"/>
      </g>
     </g>
    </g>
    <g id="xtick_2">
     <g id="text_2">
      <!-- 10 -->
      <g style="fill: #262626" transform="translate(144.667916 334.557813) scale(0.1 -0.1)">
       <defs>
        <path id="ArialMT-31" d="M 2384 0 
L 1822 0 
L 1822 3584 
Q 1619 3391 1289 3197 
Q 959 3003 697 2906 
L 697 3450 
Q 1169 3672 1522 3987 
Q 1875 4303 2022 4600 
L 2384 4600 
L 2384 0 
z
" transform="scale(0.015625)"/>
       </defs>
       <use xlink:href="#ArialMT-31"/>
       <use xlink:href="#ArialMT-30" x="55.615234"/>
      </g>
     </g>
    </g>
    <g id="xtick_3">
     <g id="text_3">
      <!-- 20 -->
      <g style="fill: #262626" transform="translate(221.861592 334.557813) scale(0.1 -0.1)">
       <defs>
        <path id="ArialMT-32" d="M 3222 541 
L 3222 0 
L 194 0 
Q 188 203 259 391 
Q 375 700 629 1000 
Q 884 1300 1366 1694 
Q 2113 2306 2375 2664 
Q 2638 3022 2638 3341 
Q 2638 3675 2398 3904 
Q 2159 4134 1775 4134 
Q 1369 4134 1125 3890 
Q 881 3647 878 3216 
L 300 3275 
Q 359 3922 746 4261 
Q 1134 4600 1788 4600 
Q 2447 4600 2831 4234 
Q 3216 3869 3216 3328 
Q 3216 3053 3103 2787 
Q 2991 2522 2730 2228 
Q 2469 1934 1863 1422 
Q 1356 997 1212 845 
Q 1069 694 975 541 
L 3222 541 
z
" transform="scale(0.015625)"/>
       </defs>
       <use xlink:href="#ArialMT-32"/>
       <use xlink:href="#ArialMT-30" x="55.615234"/>
      </g>
     </g>
    </g>
    <g id="xtick_4">
     <g id="text_4">
      <!-- 30 -->
      <g style="fill: #262626" transform="translate(299.055268 334.557813) scale(0.1 -0.1)">
       <defs>
        <path id="ArialMT-33" d="M 269 1209 
L 831 1284 
Q 928 806 1161 595 
Q 1394 384 1728 384 
Q 2125 384 2398 659 
Q 2672 934 2672 1341 
Q 2672 1728 2419 1979 
Q 2166 2231 1775 2231 
Q 1616 2231 1378 2169 
L 1441 2663 
Q 1497 2656 1531 2656 
Q 1891 2656 2178 2843 
Q 2466 3031 2466 3422 
Q 2466 3731 2256 3934 
Q 2047 4138 1716 4138 
Q 1388 4138 1169 3931 
Q 950 3725 888 3313 
L 325 3413 
Q 428 3978 793 4289 
Q 1159 4600 1703 4600 
Q 2078 4600 2393 4439 
Q 2709 4278 2876 4000 
Q 3044 3722 3044 3409 
Q 3044 3113 2884 2869 
Q 2725 2625 2413 2481 
Q 2819 2388 3044 2092 
Q 3269 1797 3269 1353 
Q 3269 753 2831 336 
Q 2394 -81 1725 -81 
Q 1122 -81 723 278 
Q 325 638 269 1209 
z
" transform="scale(0.015625)"/>
       </defs>
       <use xlink:href="#ArialMT-33"/>
       <use xlink:href="#ArialMT-30" x="55.615234"/>
      </g>
     </g>
    </g>
    <g id="xtick_5">
     <g id="text_5">
      <!-- 40 -->
      <g style="fill: #262626" transform="translate(376.248944 334.557813) scale(0.1 -0.1)">
       <defs>
        <path id="ArialMT-34" d="M 2069 0 
L 2069 1097 
L 81 1097 
L 81 1613 
L 2172 4581 
L 2631 4581 
L 2631 1613 
L 3250 1613 
L 3250 1097 
L 2631 1097 
L 2631 0 
L 2069 0 
z
M 2069 1613 
L 2069 3678 
L 634 1613 
L 2069 1613 
z
" transform="scale(0.015625)"/>
       </defs>
       <use xlink:href="#ArialMT-34"/>
       <use xlink:href="#ArialMT-30" x="55.615234"/>
      </g>
     </g>
    </g>
    <g id="text_6">
     <!-- No. of genomes -->
     <g style="fill: #262626" transform="translate(223.004688 347.825) scale(0.1 -0.1)">
      <defs>
       <path id="ArialMT-4e" d="M 488 0 
L 488 4581 
L 1109 4581 
L 3516 984 
L 3516 4581 
L 4097 4581 
L 4097 0 
L 3475 0 
L 1069 3600 
L 1069 0 
L 488 0 
z
" transform="scale(0.015625)"/>
       <path id="ArialMT-6f" d="M 213 1659 
Q 213 2581 725 3025 
Q 1153 3394 1769 3394 
Q 2453 3394 2887 2945 
Q 3322 2497 3322 1706 
Q 3322 1066 3130 698 
Q 2938 331 2570 128 
Q 2203 -75 1769 -75 
Q 1072 -75 642 372 
Q 213 819 213 1659 
z
M 791 1659 
Q 791 1022 1069 705 
Q 1347 388 1769 388 
Q 2188 388 2466 706 
Q 2744 1025 2744 1678 
Q 2744 2294 2464 2611 
Q 2184 2928 1769 2928 
Q 1347 2928 1069 2612 
Q 791 2297 791 1659 
z
" transform="scale(0.015625)"/>
       <path id="ArialMT-2e" d="M 581 0 
L 581 641 
L 1222 641 
L 1222 0 
L 581 0 
z
" transform="scale(0.015625)"/>
       <path id="ArialMT-20" transform="scale(0.015625)"/>
       <path id="ArialMT-66" d="M 556 0 
L 556 2881 
L 59 2881 
L 59 3319 
L 556 3319 
L 556 3672 
Q 556 4006 616 4169 
Q 697 4388 901 4523 
Q 1106 4659 1475 4659 
Q 1713 4659 2000 4603 
L 1916 4113 
Q 1741 4144 1584 4144 
Q 1328 4144 1222 4034 
Q 1116 3925 1116 3625 
L 1116 3319 
L 1763 3319 
L 1763 2881 
L 1116 2881 
L 1116 0 
L 556 0 
z
" transform="scale(0.015625)"/>
       <path id="ArialMT-67" d="M 319 -275 
L 866 -356 
Q 900 -609 1056 -725 
Q 1266 -881 1628 -881 
Q 2019 -881 2231 -725 
Q 2444 -569 2519 -288 
Q 2563 -116 2559 434 
Q 2191 0 1641 0 
Q 956 0 581 494 
Q 206 988 206 1678 
Q 206 2153 378 2554 
Q 550 2956 876 3175 
Q 1203 3394 1644 3394 
Q 2231 3394 2613 2919 
L 2613 3319 
L 3131 3319 
L 3131 450 
Q 3131 -325 2973 -648 
Q 2816 -972 2473 -1159 
Q 2131 -1347 1631 -1347 
Q 1038 -1347 672 -1080 
Q 306 -813 319 -275 
z
M 784 1719 
Q 784 1066 1043 766 
Q 1303 466 1694 466 
Q 2081 466 2343 764 
Q 2606 1063 2606 1700 
Q 2606 2309 2336 2618 
Q 2066 2928 1684 2928 
Q 1309 2928 1046 2623 
Q 784 2319 784 1719 
z
" transform="scale(0.015625)"/>
       <path id="ArialMT-65" d="M 2694 1069 
L 3275 997 
Q 3138 488 2766 206 
Q 2394 -75 1816 -75 
Q 1088 -75 661 373 
Q 234 822 234 1631 
Q 234 2469 665 2931 
Q 1097 3394 1784 3394 
Q 2450 3394 2872 2941 
Q 3294 2488 3294 1666 
Q 3294 1616 3291 1516 
L 816 1516 
Q 847 969 1125 678 
Q 1403 388 1819 388 
Q 2128 388 2347 550 
Q 2566 713 2694 1069 
z
M 847 1978 
L 2700 1978 
Q 2663 2397 2488 2606 
Q 2219 2931 1791 2931 
Q 1403 2931 1139 2672 
Q 875 2413 847 1978 
z
" transform="scale(0.015625)"/>
       <path id="ArialMT-6e" d="M 422 0 
L 422 3319 
L 928 3319 
L 928 2847 
Q 1294 3394 1984 3394 
Q 2284 3394 2536 3286 
Q 2788 3178 2913 3003 
Q 3038 2828 3088 2588 
Q 3119 2431 3119 2041 
L 3119 0 
L 2556 0 
L 2556 2019 
Q 2556 2363 2490 2533 
Q 2425 2703 2258 2804 
Q 2091 2906 1866 2906 
Q 1506 2906 1245 2678 
Q 984 2450 984 1813 
L 984 0 
L 422 0 
z
" transform="scale(0.015625)"/>
       <path id="ArialMT-6d" d="M 422 0 
L 422 3319 
L 925 3319 
L 925 2853 
Q 1081 3097 1340 3245 
Q 1600 3394 1931 3394 
Q 2300 3394 2536 3241 
Q 2772 3088 2869 2813 
Q 3263 3394 3894 3394 
Q 4388 3394 4653 3120 
Q 4919 2847 4919 2278 
L 4919 0 
L 4359 0 
L 4359 2091 
Q 4359 2428 4304 2576 
Q 4250 2725 4106 2815 
Q 3963 2906 3769 2906 
Q 3419 2906 3187 2673 
Q 2956 2441 2956 1928 
L 2956 0 
L 2394 0 
L 2394 2156 
Q 2394 2531 2256 2718 
Q 2119 2906 1806 2906 
Q 1569 2906 1367 2781 
Q 1166 2656 1075 2415 
Q 984 2175 984 1722 
L 984 0 
L 422 0 
z
" transform="scale(0.015625)"/>
       <path id="ArialMT-73" d="M 197 991 
L 753 1078 
Q 800 744 1014 566 
Q 1228 388 1613 388 
Q 2000 388 2187 545 
Q 2375 703 2375 916 
Q 2375 1106 2209 1216 
Q 2094 1291 1634 1406 
Q 1016 1563 777 1677 
Q 538 1791 414 1992 
Q 291 2194 291 2438 
Q 291 2659 392 2848 
Q 494 3038 669 3163 
Q 800 3259 1026 3326 
Q 1253 3394 1513 3394 
Q 1903 3394 2198 3281 
Q 2494 3169 2634 2976 
Q 2775 2784 2828 2463 
L 2278 2388 
Q 2241 2644 2061 2787 
Q 1881 2931 1553 2931 
Q 1166 2931 1000 2803 
Q 834 2675 834 2503 
Q 834 2394 903 2306 
Q 972 2216 1119 2156 
Q 1203 2125 1616 2013 
Q 2213 1853 2448 1751 
Q 2684 1650 2818 1456 
Q 2953 1263 2953 975 
Q 2953 694 2789 445 
Q 2625 197 2315 61 
Q 2006 -75 1616 -75 
Q 969 -75 630 194 
Q 291 463 197 991 
z
" transform="scale(0.015625)"/>
      </defs>
      <use xlink:href="#ArialMT-4e"/>
      <use xlink:href="#ArialMT-6f" x="72.216797"/>
      <use xlink:href="#ArialMT-2e" x="127.832031"/>
      <use xlink:href="#ArialMT-20" x="155.615234"/>
      <use xlink:href="#ArialMT-6f" x="183.398438"/>
      <use xlink:href="#ArialMT-66" x="239.013672"/>
      <use xlink:href="#ArialMT-20" x="266.796875"/>
      <use xlink:href="#ArialMT-67" x="294.580078"/>
      <use xlink:href="#ArialMT-65" x="350.195312"/>
      <use xlink:href="#ArialMT-6e" x="405.810547"/>
      <use xlink:href="#ArialMT-6f" x="461.425781"/>
      <use xlink:href="#ArialMT-6d" x="517.041016"/>
      <use xlink:href="#ArialMT-65" x="600.341797"/>
      <use xlink:href="#ArialMT-73" x="655.957031"/>
     </g>
    </g>
   </g>
   <g id="matplotlib.axis_2">
    <g id="ytick_1">
     <g id="text_7">
      <!-- 0 -->
      <g style="fill: #262626" transform="translate(50.439062 323.978906) scale(0.1 -0.1)">
       <use xlink:href="#ArialMT-30"/>
      </g>
     </g>
    </g>
    <g id="ytick_2">
     <g id="text_8">
      <!-- 2500 -->
      <g style="fill: #262626" transform="translate(33.75625 288.09569) scale(0.1 -0.1)">
       <defs>
        <path id="ArialMT-35" d="M 266 1200 
L 856 1250 
Q 922 819 1161 601 
Q 1400 384 1738 384 
Q 2144 384 2425 690 
Q 2706 997 2706 1503 
Q 2706 1984 2436 2262 
Q 2166 2541 1728 2541 
Q 1456 2541 1237 2417 
Q 1019 2294 894 2097 
L 366 2166 
L 809 4519 
L 3088 4519 
L 3088 3981 
L 1259 3981 
L 1013 2750 
Q 1425 3038 1878 3038 
Q 2478 3038 2890 2622 
Q 3303 2206 3303 1553 
Q 3303 931 2941 478 
Q 2500 -78 1738 -78 
Q 1113 -78 717 272 
Q 322 622 266 1200 
z
" transform="scale(0.015625)"/>
       </defs>
       <use xlink:href="#ArialMT-32"/>
       <use xlink:href="#ArialMT-35" x="55.615234"/>
       <use xlink:href="#ArialMT-30" x="111.230469"/>
       <use xlink:href="#ArialMT-30" x="166.845703"/>
      </g>
     </g>
    </g>
    <g id="ytick_3">
     <g id="text_9">
      <!-- 5000 -->
      <g style="fill: #262626" transform="translate(33.75625 252.212473) scale(0.1 -0.1)">
       <use xlink:href="#ArialMT-35"/>
       <use xlink:href="#ArialMT-30" x="55.615234"/>
       <use xlink:href="#ArialMT-30" x="111.230469"/>
       <use xlink:href="#ArialMT-30" x="166.845703"/>
      </g>
     </g>
    </g>
    <g id="ytick_4">
     <g id="text_10">
      <!-- 7500 -->
      <g style="fill: #262626" transform="translate(33.75625 216.329257) scale(0.1 -0.1)">
       <defs>
        <path id="ArialMT-37" d="M 303 3981 
L 303 4522 
L 3269 4522 
L 3269 4084 
Q 2831 3619 2401 2847 
Q 1972 2075 1738 1259 
Q 1569 684 1522 0 
L 944 0 
Q 953 541 1156 1306 
Q 1359 2072 1739 2783 
Q 2119 3494 2547 3981 
L 303 3981 
z
" transform="scale(0.015625)"/>
       </defs>
       <use xlink:href="#ArialMT-37"/>
       <use xlink:href="#ArialMT-35" x="55.615234"/>
       <use xlink:href="#ArialMT-30" x="111.230469"/>
       <use xlink:href="#ArialMT-30" x="166.845703"/>
      </g>
     </g>
    </g>
    <g id="ytick_5">
     <g id="text_11">
      <!-- 10000 -->
      <g style="fill: #262626" transform="translate(28.195312 180.44604) scale(0.1 -0.1)">
       <use xlink:href="#ArialMT-31"/>
       <use xlink:href="#ArialMT-30" x="55.615234"/>
       <use xlink:href="#ArialMT-30" x="111.230469"/>
       <use xlink:href="#ArialMT-30" x="166.845703"/>
       <use xlink:href="#ArialMT-30" x="222.460938"/>
      </g>
     </g>
    </g>
    <g id="ytick_6">
     <g id="text_12">
      <!-- 12500 -->
      <g style="fill: #262626" transform="translate(28.195312 144.562824) scale(0.1 -0.1)">
       <use xlink:href="#ArialMT-31"/>
       <use xlink:href="#ArialMT-32" x="55.615234"/>
       <use xlink:href="#ArialMT-35" x="111.230469"/>
       <use xlink:href="#ArialMT-30" x="166.845703"/>
       <use xlink:href="#ArialMT-30" x="222.460938"/>
      </g>
     </g>
    </g>
    <g id="ytick_7">
     <g id="text_13">
      <!-- 15000 -->
      <g style="fill: #262626" transform="translate(28.195312 108.679608) scale(0.1 -0.1)">
       <use xlink:href="#ArialMT-31"/>
       <use xlink:href="#ArialMT-35" x="55.615234"/>
       <use xlink:href="#ArialMT-30" x="111.230469"/>
       <use xlink:href="#ArialMT-30" x="166.845703"/>
       <use xlink:href="#ArialMT-30" x="222.460938"/>
      </g>
     </g>
    </g>
    <g id="ytick_8">
     <g id="text_14">
      <!-- 17500 -->
      <g style="fill: #262626" transform="translate(28.195312 72.796391) scale(0.1 -0.1)">
       <use xlink:href="#ArialMT-31"/>
       <use xlink:href="#ArialMT-37" x="55.615234"/>
       <use xlink:href="#ArialMT-35" x="111.230469"/>
       <use xlink:href="#ArialMT-30" x="166.845703"/>
       <use xlink:href="#ArialMT-30" x="222.460938"/>
      </g>
     </g>
    </g>
    <g id="text_15">
     <!-- No. of genes -->
     <g style="fill: #262626" transform="translate(22.090625 210.15) rotate(-90) scale(0.1 -0.1)">
      <use xlink:href="#ArialMT-4e"/>
      <use xlink:href="#ArialMT-6f" x="72.216797"/>
      <use xlink:href="#ArialMT-2e" x="127.832031"/>
      <use xlink:href="#ArialMT-20" x="155.615234"/>
      <use xlink:href="#ArialMT-6f" x="183.398438"/>
      <use xlink:href="#ArialMT-66" x="239.013672"/>
      <use xlink:href="#ArialMT-20" x="266.796875"/>
      <use xlink:href="#ArialMT-67" x="294.580078"/>
      <use xlink:href="#ArialMT-65" x="350.195312"/>
      <use xlink:href="#ArialMT-6e" x="405.810547"/>
      <use xlink:href="#ArialMT-65" x="461.425781"/>
      <use xlink:href="#ArialMT-73" x="517.041016"/>
     </g>
    </g>
   </g>
   <g id="patch_3">
    <path d="M 80.754545 320.4 
L 80.754545 56.4 
L 88.309671 56.4 
L 88.309671 170.006263 
L 95.864797 170.006263 
L 95.864797 251.360692 
L 103.419923 251.360692 
L 103.419923 308.199706 
L 110.975048 308.199706 
L 110.975048 291.650367 
L 118.530174 291.650367 
L 118.530174 305.343402 
L 126.0853 305.343402 
L 126.0853 318.2183 
L 133.640426 318.2183 
L 133.640426 318.003001 
L 141.195551 318.003001 
L 141.195551 318.806785 
L 148.750677 318.806785 
L 148.750677 316.768618 
L 156.305803 316.768618 
L 156.305803 318.031708 
L 163.860928 318.031708 
L 163.860928 319.065144 
L 171.416054 319.065144 
L 171.416054 317.21357 
L 178.97118 317.21357 
L 178.97118 319.409623 
L 186.526306 319.409623 
L 186.526306 319.840222 
L 194.081431 319.840222 
L 194.081431 319.43833 
L 201.636557 319.43833 
L 201.636557 319.811515 
L 209.191683 319.811515 
L 209.191683 319.840222 
L 216.746809 319.840222 
L 216.746809 319.955048 
L 224.301934 319.955048 
L 224.301934 319.940695 
L 231.85706 319.940695 
L 231.85706 320.041168 
L 239.412186 320.041168 
L 239.412186 319.897635 
L 246.967311 319.897635 
L 246.967311 319.969401 
L 254.522437 319.969401 
L 254.522437 320.026815 
L 262.077563 320.026815 
L 262.077563 320.141641 
L 269.632689 320.141641 
L 269.632689 320.112934 
L 277.187814 320.112934 
L 277.187814 320.026815 
L 284.74294 320.026815 
L 284.74294 319.667982 
L 292.298066 319.667982 
L 292.298066 319.581863 
L 299.853191 319.581863 
L 299.853191 319.725396 
L 307.408317 319.725396 
L 307.408317 319.596216 
L 314.963443 319.596216 
L 314.963443 319.682336 
L 322.518569 319.682336 
L 322.518569 319.510096 
L 330.073694 319.510096 
L 330.073694 318.462306 
L 337.62882 318.462306 
L 337.62882 314.084554 
L 345.183946 314.084554 
L 345.183946 285.693753 
L 352.739072 285.693753 
L 352.739072 320.155994 
L 360.294197 320.155994 
L 360.294197 320.012461 
L 367.849323 320.012461 
L 367.849323 320.256467 
L 375.404449 320.256467 
L 375.404449 319.998108 
L 382.959574 319.998108 
L 382.959574 319.26609 
L 390.5147 319.26609 
L 390.5147 319.911988 
L 398.069826 319.911988 
L 398.069826 320.184701 
L 405.624952 320.184701 
L 405.624952 320.184701 
L 413.180077 320.184701 
L 413.180077 320.041168 
L 420.735203 320.041168 
L 420.735203 319.696689 
L 428.290329 319.696689 
L 428.290329 317.543696 
L 435.845455 317.543696 
L 435.845455 320.4 
L 428.290329 320.4 
L 428.290329 320.4 
L 420.735203 320.4 
L 420.735203 320.4 
L 413.180077 320.4 
L 413.180077 320.4 
L 405.624952 320.4 
L 405.624952 320.4 
L 398.069826 320.4 
L 398.069826 320.4 
L 390.5147 320.4 
L 390.5147 320.4 
L 382.959574 320.4 
L 382.959574 320.4 
L 375.404449 320.4 
L 375.404449 320.4 
L 367.849323 320.4 
L 367.849323 320.4 
L 360.294197 320.4 
L 360.294197 320.4 
L 352.739072 320.4 
L 352.739072 320.4 
L 345.183946 320.4 
L 345.183946 320.4 
L 337.62882 320.4 
L 337.62882 320.4 
L 330.073694 320.4 
L 330.073694 320.4 
L 322.518569 320.4 
L 322.518569 320.4 
L 314.963443 320.4 
L 314.963443 320.4 
L 307.408317 320.4 
L 307.408317 320.4 
L 299.853191 320.4 
L 299.853191 320.4 
L 292.298066 320.4 
L 292.298066 320.4 
L 284.74294 320.4 
L 284.74294 320.4 
L 277.187814 320.4 
L 277.187814 320.4 
L 269.632689 320.4 
L 269.632689 320.4 
L 262.077563 320.4 
L 262.077563 320.4 
L 254.522437 320.4 
L 254.522437 320.4 
L 246.967311 320.4 
L 246.967311 320.4 
L 239.412186 320.4 
L 239.412186 320.4 
L 231.85706 320.4 
L 231.85706 320.4 
L 224.301934 320.4 
L 224.301934 320.4 
L 216.746809 320.4 
L 216.746809 320.4 
L 209.191683 320.4 
L 209.191683 320.4 
L 201.636557 320.4 
L 201.636557 320.4 
L 194.081431 320.4 
L 194.081431 320.4 
L 186.526306 320.4 
L 186.526306 320.4 
L 178.97118 320.4 
L 178.97118 320.4 
L 171.416054 320.4 
L 171.416054 320.4 
L 163.860928 320.4 
L 163.860928 320.4 
L 156.305803 320.4 
L 156.305803 320.4 
L 148.750677 320.4 
L 148.750677 320.4 
L 141.195551 320.4 
L 141.195551 320.4 
L 133.640426 320.4 
L 133.640426 320.4 
L 126.0853 320.4 
L 126.0853 320.4 
L 118.530174 320.4 
L 118.530174 320.4 
L 110.975048 320.4 
L 110.975048 320.4 
L 103.419923 320.4 
L 103.419923 320.4 
L 95.864797 320.4 
L 95.864797 320.4 
L 88.309671 320.4 
L 88.309671 320.4 
z
" clip-path="url(#pa68189646e)" style="fill: #1f77b4; opacity: 0.7; stroke: #ffffff; stroke-linejoin: miter"/>
   </g>
  </g>
 </g>
 <defs>
  <clipPath id="pa68189646e">
   <rect x="63" y="43.2" width="390.6" height="277.2"/>
  </clipPath>
 </defs>
</svg>
