<?xml version="1.0" encoding="utf-8" standalone="no"?>
<!DOCTYPE svg PUBLIC "-//W3C//DTD SVG 1.1//EN"
  "http://www.w3.org/Graphics/SVG/1.1/DTD/svg11.dtd">
<svg xmlns:xlink="http://www.w3.org/1999/xlink" width="720pt" height="720pt" viewBox="0 0 720 720" xmlns="http://www.w3.org/2000/svg" version="1.1">
 <metadata>
  <rdf:RDF xmlns:dc="http://purl.org/dc/elements/1.1/" xmlns:cc="http://creativecommons.org/ns#" xmlns:rdf="http://www.w3.org/1999/02/22-rdf-syntax-ns#">
   <cc:Work>
    <dc:type rdf:resource="http://purl.org/dc/dcmitype/StillImage"/>
    <dc:date>2023-02-06T17:48:01.572609</dc:date>
    <dc:format>image/svg+xml</dc:format>
    <dc:creator>
     <cc:Agent>
      <dc:title>Matplotlib v3.6.3, https://matplotlib.org/</dc:title>
     </cc:Agent>
    </dc:creator>
   </cc:Work>
  </rdf:RDF>
 </metadata>
 <defs>
  <style type="text/css">*{stroke-linejoin: round; stroke-linecap: butt}</style>
 </defs>
 <g id="figure_1">
  <g id="patch_1">
   <path d="M 0 720 
L 720 720 
L 720 0 
L 0 0 
z
" style="fill: #ffffff"/>
  </g>
  <g id="axes_1">
   <g id="matplotlib.axis_1"/>
   <g id="matplotlib.axis_2"/>
   <g id="patch_2">
    <path d="M 590.757663 363.278029 
C 590.757663 362.312077 590.75065 361.346138 590.736625 360.380288 
C 590.722601 359.414438 590.701565 358.448703 590.673519 357.483158 
L 391.173663 363.278029 
L 590.757663 363.278029 
z
" style="fill: #0000ff; fill-opacity: 0.004622; stroke: #ffffff; stroke-linejoin: miter"/>
   </g>
   <g id="patch_3">
    <path d="M 579.581282 357.423356 
C 579.570852 357.064311 579.559454 356.705294 579.547086 356.34631 
C 579.534719 355.987326 579.521382 355.628377 579.507076 355.269465 
L 380.081426 363.218227 
L 579.581282 357.423356 
z
" style="fill: #0000ff; fill-opacity: 0.001719; stroke: #ffffff; stroke-linejoin: miter"/>
   </g>
   <g id="patch_4">
    <path d="M 572.496274 353.890265 
C 571.517261 329.327906 566.008767 305.156458 556.248667 282.595244 
C 546.488568 260.03403 532.643785 239.468904 515.412716 221.93727 
L 373.070623 361.839027 
L 572.496274 353.890265 
z
" style="fill: #0000ff; fill-opacity: 0.117284; stroke: #ffffff; stroke-linejoin: miter"/>
   </g>
   <g id="patch_5">
    <path d="M 511.342093 223.698243 
C 495.253436 207.328948 476.460991 193.856938 455.792766 183.875798 
C 435.124541 173.894658 412.888612 167.553165 390.06471 165.13073 
C 367.240808 162.708295 344.169142 164.241027 321.866265 169.661391 
C 299.563387 175.081755 278.361742 184.308958 259.195486 196.936441 
C 240.029231 209.563925 223.184055 225.403467 209.402167 243.757166 
C 195.62028 262.110865 185.107112 282.705144 178.325881 304.632606 
C 171.54465 326.560068 168.596435 349.493866 169.611137 372.423521 
C 170.625839 395.353176 175.588333 417.936902 184.279968 439.179646 
C 192.971603 460.42239 205.262823 480.007511 220.612068 497.072075 
C 235.961314 514.136639 254.139792 528.426285 274.346546 539.311402 
C 294.553301 550.196518 316.487133 557.514854 339.181624 560.943957 
C 361.876116 564.373061 384.992986 563.861819 407.51369 559.432757 
C 430.034393 555.003695 451.623241 546.722832 471.329014 534.955029 
C 491.034787 523.187225 508.563754 508.10789 523.143578 490.381428 
C 537.723401 472.654967 549.136756 452.545606 556.880763 430.939379 
C 564.62477 409.333153 568.583997 386.552117 568.584 363.600022 
L 369 363.6 
L 511.342093 223.698243 
z
" style="fill: #0000ff; fill-opacity: 0.876376; stroke: #ffffff; stroke-linejoin: miter"/>
   </g>
   <g id="text_1">
    <!-- core -->
    <g style="fill: #262626" transform="translate(610.692922 357.255514) scale(0.1 -0.1)">
     <defs>
      <path id="ArialMT-63" d="M 2588 1216 
L 3141 1144 
Q 3050 572 2676 248 
Q 2303 -75 1759 -75 
Q 1078 -75 664 370 
Q 250 816 250 1647 
Q 250 2184 428 2587 
Q 606 2991 970 3192 
Q 1334 3394 1763 3394 
Q 2303 3394 2647 3120 
Q 2991 2847 3088 2344 
L 2541 2259 
Q 2463 2594 2264 2762 
Q 2066 2931 1784 2931 
Q 1359 2931 1093 2626 
Q 828 2322 828 1663 
Q 828 994 1084 691 
Q 1341 388 1753 388 
Q 2084 388 2306 591 
Q 2528 794 2588 1216 
z
" transform="scale(0.015625)"/>
      <path id="ArialMT-6f" d="M 213 1659 
Q 213 2581 725 3025 
Q 1153 3394 1769 3394 
Q 2453 3394 2887 2945 
Q 3322 2497 3322 1706 
Q 3322 1066 3130 698 
Q 2938 331 2570 128 
Q 2203 -75 1769 -75 
Q 1072 -75 642 372 
Q 213 819 213 1659 
z
M 791 1659 
Q 791 1022 1069 705 
Q 1347 388 1769 388 
Q 2188 388 2466 706 
Q 2744 1025 2744 1678 
Q 2744 2294 2464 2611 
Q 2184 2928 1769 2928 
Q 1347 2928 1069 2612 
Q 791 2297 791 1659 
z
" transform="scale(0.015625)"/>
      <path id="ArialMT-72" d="M 416 0 
L 416 3319 
L 922 3319 
L 922 2816 
Q 1116 3169 1280 3281 
Q 1444 3394 1641 3394 
Q 1925 3394 2219 3213 
L 2025 2691 
Q 1819 2813 1613 2813 
Q 1428 2813 1281 2702 
Q 1134 2591 1072 2394 
Q 978 2094 978 1738 
L 978 0 
L 416 0 
z
" transform="scale(0.015625)"/>
      <path id="ArialMT-65" d="M 2694 1069 
L 3275 997 
Q 3138 488 2766 206 
Q 2394 -75 1816 -75 
Q 1088 -75 661 373 
Q 234 822 234 1631 
Q 234 2469 665 2931 
Q 1097 3394 1784 3394 
Q 2450 3394 2872 2941 
Q 3294 2488 3294 1666 
Q 3294 1616 3291 1516 
L 816 1516 
Q 847 969 1125 678 
Q 1403 388 1819 388 
Q 2128 388 2347 550 
Q 2566 713 2694 1069 
z
M 847 1978 
L 2700 1978 
Q 2663 2397 2488 2606 
Q 2219 2931 1791 2931 
Q 1403 2931 1139 2672 
Q 875 2413 847 1978 
z
" transform="scale(0.015625)"/>
     </defs>
     <use xlink:href="#ArialMT-63"/>
     <use xlink:href="#ArialMT-6f" x="50"/>
     <use xlink:href="#ArialMT-72" x="105.615234"/>
     <use xlink:href="#ArialMT-65" x="138.916016"/>
    </g>
    <!-- (46 &lt;= strains &lt;= 47) -->
    <g style="fill: #262626" transform="translate(610.692922 367.978639) scale(0.1 -0.1)">
     <defs>
      <path id="ArialMT-28" d="M 1497 -1347 
Q 1031 -759 709 28 
Q 388 816 388 1659 
Q 388 2403 628 3084 
Q 909 3875 1497 4659 
L 1900 4659 
Q 1522 4009 1400 3731 
Q 1209 3300 1100 2831 
Q 966 2247 966 1656 
Q 966 153 1900 -1347 
L 1497 -1347 
z
" transform="scale(0.015625)"/>
      <path id="ArialMT-34" d="M 2069 0 
L 2069 1097 
L 81 1097 
L 81 1613 
L 2172 4581 
L 2631 4581 
L 2631 1613 
L 3250 1613 
L 3250 1097 
L 2631 1097 
L 2631 0 
L 2069 0 
z
M 2069 1613 
L 2069 3678 
L 634 1613 
L 2069 1613 
z
" transform="scale(0.015625)"/>
      <path id="ArialMT-36" d="M 3184 3459 
L 2625 3416 
Q 2550 3747 2413 3897 
Q 2184 4138 1850 4138 
Q 1581 4138 1378 3988 
Q 1113 3794 959 3422 
Q 806 3050 800 2363 
Q 1003 2672 1297 2822 
Q 1591 2972 1913 2972 
Q 2475 2972 2870 2558 
Q 3266 2144 3266 1488 
Q 3266 1056 3080 686 
Q 2894 316 2569 119 
Q 2244 -78 1831 -78 
Q 1128 -78 684 439 
Q 241 956 241 2144 
Q 241 3472 731 4075 
Q 1159 4600 1884 4600 
Q 2425 4600 2770 4297 
Q 3116 3994 3184 3459 
z
M 888 1484 
Q 888 1194 1011 928 
Q 1134 663 1356 523 
Q 1578 384 1822 384 
Q 2178 384 2434 671 
Q 2691 959 2691 1453 
Q 2691 1928 2437 2201 
Q 2184 2475 1800 2475 
Q 1419 2475 1153 2201 
Q 888 1928 888 1484 
z
" transform="scale(0.015625)"/>
      <path id="ArialMT-20" transform="scale(0.015625)"/>
      <path id="ArialMT-3c" d="M 350 2003 
L 350 2528 
L 3384 3809 
L 3384 3250 
L 978 2263 
L 3384 1266 
L 3384 706 
L 350 2003 
z
" transform="scale(0.015625)"/>
      <path id="ArialMT-3d" d="M 3381 2694 
L 356 2694 
L 356 3219 
L 3381 3219 
L 3381 2694 
z
M 3381 1303 
L 356 1303 
L 356 1828 
L 3381 1828 
L 3381 1303 
z
" transform="scale(0.015625)"/>
      <path id="ArialMT-73" d="M 197 991 
L 753 1078 
Q 800 744 1014 566 
Q 1228 388 1613 388 
Q 2000 388 2187 545 
Q 2375 703 2375 916 
Q 2375 1106 2209 1216 
Q 2094 1291 1634 1406 
Q 1016 1563 777 1677 
Q 538 1791 414 1992 
Q 291 2194 291 2438 
Q 291 2659 392 2848 
Q 494 3038 669 3163 
Q 800 3259 1026 3326 
Q 1253 3394 1513 3394 
Q 1903 3394 2198 3281 
Q 2494 3169 2634 2976 
Q 2775 2784 2828 2463 
L 2278 2388 
Q 2241 2644 2061 2787 
Q 1881 2931 1553 2931 
Q 1166 2931 1000 2803 
Q 834 2675 834 2503 
Q 834 2394 903 2306 
Q 972 2216 1119 2156 
Q 1203 2125 1616 2013 
Q 2213 1853 2448 1751 
Q 2684 1650 2818 1456 
Q 2953 1263 2953 975 
Q 2953 694 2789 445 
Q 2625 197 2315 61 
Q 2006 -75 1616 -75 
Q 969 -75 630 194 
Q 291 463 197 991 
z
" transform="scale(0.015625)"/>
      <path id="ArialMT-74" d="M 1650 503 
L 1731 6 
Q 1494 -44 1306 -44 
Q 1000 -44 831 53 
Q 663 150 594 308 
Q 525 466 525 972 
L 525 2881 
L 113 2881 
L 113 3319 
L 525 3319 
L 525 4141 
L 1084 4478 
L 1084 3319 
L 1650 3319 
L 1650 2881 
L 1084 2881 
L 1084 941 
Q 1084 700 1114 631 
Q 1144 563 1211 522 
Q 1278 481 1403 481 
Q 1497 481 1650 503 
z
" transform="scale(0.015625)"/>
      <path id="ArialMT-61" d="M 2588 409 
Q 2275 144 1986 34 
Q 1697 -75 1366 -75 
Q 819 -75 525 192 
Q 231 459 231 875 
Q 231 1119 342 1320 
Q 453 1522 633 1644 
Q 813 1766 1038 1828 
Q 1203 1872 1538 1913 
Q 2219 1994 2541 2106 
Q 2544 2222 2544 2253 
Q 2544 2597 2384 2738 
Q 2169 2928 1744 2928 
Q 1347 2928 1158 2789 
Q 969 2650 878 2297 
L 328 2372 
Q 403 2725 575 2942 
Q 747 3159 1072 3276 
Q 1397 3394 1825 3394 
Q 2250 3394 2515 3294 
Q 2781 3194 2906 3042 
Q 3031 2891 3081 2659 
Q 3109 2516 3109 2141 
L 3109 1391 
Q 3109 606 3145 398 
Q 3181 191 3288 0 
L 2700 0 
Q 2613 175 2588 409 
z
M 2541 1666 
Q 2234 1541 1622 1453 
Q 1275 1403 1131 1340 
Q 988 1278 909 1158 
Q 831 1038 831 891 
Q 831 666 1001 516 
Q 1172 366 1500 366 
Q 1825 366 2078 508 
Q 2331 650 2450 897 
Q 2541 1088 2541 1459 
L 2541 1666 
z
" transform="scale(0.015625)"/>
      <path id="ArialMT-69" d="M 425 3934 
L 425 4581 
L 988 4581 
L 988 3934 
L 425 3934 
z
M 425 0 
L 425 3319 
L 988 3319 
L 988 0 
L 425 0 
z
" transform="scale(0.015625)"/>
      <path id="ArialMT-6e" d="M 422 0 
L 422 3319 
L 928 3319 
L 928 2847 
Q 1294 3394 1984 3394 
Q 2284 3394 2536 3286 
Q 2788 3178 2913 3003 
Q 3038 2828 3088 2588 
Q 3119 2431 3119 2041 
L 3119 0 
L 2556 0 
L 2556 2019 
Q 2556 2363 2490 2533 
Q 2425 2703 2258 2804 
Q 2091 2906 1866 2906 
Q 1506 2906 1245 2678 
Q 984 2450 984 1813 
L 984 0 
L 422 0 
z
" transform="scale(0.015625)"/>
      <path id="ArialMT-37" d="M 303 3981 
L 303 4522 
L 3269 4522 
L 3269 4084 
Q 2831 3619 2401 2847 
Q 1972 2075 1738 1259 
Q 1569 684 1522 0 
L 944 0 
Q 953 541 1156 1306 
Q 1359 2072 1739 2783 
Q 2119 3494 2547 3981 
L 303 3981 
z
" transform="scale(0.015625)"/>
      <path id="ArialMT-29" d="M 791 -1347 
L 388 -1347 
Q 1322 153 1322 1656 
Q 1322 2244 1188 2822 
Q 1081 3291 891 3722 
Q 769 4003 388 4659 
L 791 4659 
Q 1378 3875 1659 3084 
Q 1900 2403 1900 1659 
Q 1900 816 1576 28 
Q 1253 -759 791 -1347 
z
" transform="scale(0.015625)"/>
     </defs>
     <use xlink:href="#ArialMT-28"/>
     <use xlink:href="#ArialMT-34" x="33.300781"/>
     <use xlink:href="#ArialMT-36" x="88.916016"/>
     <use xlink:href="#ArialMT-20" x="144.53125"/>
     <use xlink:href="#ArialMT-3c" x="172.314453"/>
     <use xlink:href="#ArialMT-3d" x="230.712891"/>
     <use xlink:href="#ArialMT-20" x="289.111328"/>
     <use xlink:href="#ArialMT-73" x="316.894531"/>
     <use xlink:href="#ArialMT-74" x="366.894531"/>
     <use xlink:href="#ArialMT-72" x="394.677734"/>
     <use xlink:href="#ArialMT-61" x="427.978516"/>
     <use xlink:href="#ArialMT-69" x="483.59375"/>
     <use xlink:href="#ArialMT-6e" x="505.810547"/>
     <use xlink:href="#ArialMT-73" x="561.425781"/>
     <use xlink:href="#ArialMT-20" x="611.425781"/>
     <use xlink:href="#ArialMT-3c" x="639.208984"/>
     <use xlink:href="#ArialMT-3d" x="697.607422"/>
     <use xlink:href="#ArialMT-20" x="756.005859"/>
     <use xlink:href="#ArialMT-34" x="783.789062"/>
     <use xlink:href="#ArialMT-37" x="839.404297"/>
     <use xlink:href="#ArialMT-29" x="895.019531"/>
    </g>
   </g>
   <g id="text_2">
    <!-- 199 -->
    <g style="fill: #262626" transform="translate(502.570034 364.124541) scale(0.1 -0.1)">
     <defs>
      <path id="ArialMT-31" d="M 2384 0 
L 1822 0 
L 1822 3584 
Q 1619 3391 1289 3197 
Q 959 3003 697 2906 
L 697 3450 
Q 1169 3672 1522 3987 
Q 1875 4303 2022 4600 
L 2384 4600 
L 2384 0 
z
" transform="scale(0.015625)"/>
      <path id="ArialMT-39" d="M 350 1059 
L 891 1109 
Q 959 728 1153 556 
Q 1347 384 1650 384 
Q 1909 384 2104 503 
Q 2300 622 2425 820 
Q 2550 1019 2634 1356 
Q 2719 1694 2719 2044 
Q 2719 2081 2716 2156 
Q 2547 1888 2255 1720 
Q 1963 1553 1622 1553 
Q 1053 1553 659 1965 
Q 266 2378 266 3053 
Q 266 3750 677 4175 
Q 1088 4600 1706 4600 
Q 2153 4600 2523 4359 
Q 2894 4119 3086 3673 
Q 3278 3228 3278 2384 
Q 3278 1506 3087 986 
Q 2897 466 2520 194 
Q 2144 -78 1638 -78 
Q 1100 -78 759 220 
Q 419 519 350 1059 
z
M 2653 3081 
Q 2653 3566 2395 3850 
Q 2138 4134 1775 4134 
Q 1400 4134 1122 3828 
Q 844 3522 844 3034 
Q 844 2597 1108 2323 
Q 1372 2050 1759 2050 
Q 2150 2050 2401 2323 
Q 2653 2597 2653 3081 
z
" transform="scale(0.015625)"/>
     </defs>
     <use xlink:href="#ArialMT-31"/>
     <use xlink:href="#ArialMT-39" x="55.615234"/>
     <use xlink:href="#ArialMT-39" x="111.230469"/>
    </g>
   </g>
   <g id="text_3">
    <!-- soft-core -->
    <g style="fill: #262626" transform="translate(599.493652 352.824119) scale(0.1 -0.1)">
     <defs>
      <path id="ArialMT-66" d="M 556 0 
L 556 2881 
L 59 2881 
L 59 3319 
L 556 3319 
L 556 3672 
Q 556 4006 616 4169 
Q 697 4388 901 4523 
Q 1106 4659 1475 4659 
Q 1713 4659 2000 4603 
L 1916 4113 
Q 1741 4144 1584 4144 
Q 1328 4144 1222 4034 
Q 1116 3925 1116 3625 
L 1116 3319 
L 1763 3319 
L 1763 2881 
L 1116 2881 
L 1116 0 
L 556 0 
z
" transform="scale(0.015625)"/>
      <path id="ArialMT-2d" d="M 203 1375 
L 203 1941 
L 1931 1941 
L 1931 1375 
L 203 1375 
z
" transform="scale(0.015625)"/>
     </defs>
     <use xlink:href="#ArialMT-73"/>
     <use xlink:href="#ArialMT-6f" x="50"/>
     <use xlink:href="#ArialMT-66" x="105.615234"/>
     <use xlink:href="#ArialMT-74" x="133.398438"/>
     <use xlink:href="#ArialMT-2d" x="161.181641"/>
     <use xlink:href="#ArialMT-63" x="194.482422"/>
     <use xlink:href="#ArialMT-6f" x="244.482422"/>
     <use xlink:href="#ArialMT-72" x="300.097656"/>
     <use xlink:href="#ArialMT-65" x="333.398438"/>
    </g>
    <!-- (44 &lt;= strains &lt; 46) -->
    <g style="fill: #262626" transform="translate(599.493652 363.547244) scale(0.1 -0.1)">
     <use xlink:href="#ArialMT-28"/>
     <use xlink:href="#ArialMT-34" x="33.300781"/>
     <use xlink:href="#ArialMT-34" x="88.916016"/>
     <use xlink:href="#ArialMT-20" x="144.53125"/>
     <use xlink:href="#ArialMT-3c" x="172.314453"/>
     <use xlink:href="#ArialMT-3d" x="230.712891"/>
     <use xlink:href="#ArialMT-20" x="289.111328"/>
     <use xlink:href="#ArialMT-73" x="316.894531"/>
     <use xlink:href="#ArialMT-74" x="366.894531"/>
     <use xlink:href="#ArialMT-72" x="394.677734"/>
     <use xlink:href="#ArialMT-61" x="427.978516"/>
     <use xlink:href="#ArialMT-69" x="483.59375"/>
     <use xlink:href="#ArialMT-6e" x="505.810547"/>
     <use xlink:href="#ArialMT-73" x="561.425781"/>
     <use xlink:href="#ArialMT-20" x="611.425781"/>
     <use xlink:href="#ArialMT-3c" x="639.208984"/>
     <use xlink:href="#ArialMT-20" x="697.607422"/>
     <use xlink:href="#ArialMT-34" x="725.390625"/>
     <use xlink:href="#ArialMT-36" x="781.005859"/>
     <use xlink:href="#ArialMT-29" x="836.621094"/>
    </g>
   </g>
   <g id="text_4">
    <!-- 74 -->
    <g style="fill: #262626" transform="translate(494.199885 361.680233) scale(0.1 -0.1)">
     <use xlink:href="#ArialMT-37"/>
     <use xlink:href="#ArialMT-34" x="55.615234"/>
    </g>
   </g>
   <g id="text_5">
    <!-- shell -->
    <g style="fill: #262626" transform="translate(574.566472 271.835865) scale(0.1 -0.1)">
     <defs>
      <path id="ArialMT-68" d="M 422 0 
L 422 4581 
L 984 4581 
L 984 2938 
Q 1378 3394 1978 3394 
Q 2347 3394 2619 3248 
Q 2891 3103 3008 2847 
Q 3125 2591 3125 2103 
L 3125 0 
L 2563 0 
L 2563 2103 
Q 2563 2525 2380 2717 
Q 2197 2909 1863 2909 
Q 1613 2909 1392 2779 
Q 1172 2650 1078 2428 
Q 984 2206 984 1816 
L 984 0 
L 422 0 
z
" transform="scale(0.015625)"/>
      <path id="ArialMT-6c" d="M 409 0 
L 409 4581 
L 972 4581 
L 972 0 
L 409 0 
z
" transform="scale(0.015625)"/>
     </defs>
     <use xlink:href="#ArialMT-73"/>
     <use xlink:href="#ArialMT-68" x="50"/>
     <use xlink:href="#ArialMT-65" x="105.615234"/>
     <use xlink:href="#ArialMT-6c" x="161.230469"/>
     <use xlink:href="#ArialMT-6c" x="183.447266"/>
    </g>
    <!-- (7 &lt;= strains &lt; 44) -->
    <g style="fill: #262626" transform="translate(574.566472 282.55899) scale(0.1 -0.1)">
     <use xlink:href="#ArialMT-28"/>
     <use xlink:href="#ArialMT-37" x="33.300781"/>
     <use xlink:href="#ArialMT-20" x="88.916016"/>
     <use xlink:href="#ArialMT-3c" x="116.699219"/>
     <use xlink:href="#ArialMT-3d" x="175.097656"/>
     <use xlink:href="#ArialMT-20" x="233.496094"/>
     <use xlink:href="#ArialMT-73" x="261.279297"/>
     <use xlink:href="#ArialMT-74" x="311.279297"/>
     <use xlink:href="#ArialMT-72" x="339.0625"/>
     <use xlink:href="#ArialMT-61" x="372.363281"/>
     <use xlink:href="#ArialMT-69" x="427.978516"/>
     <use xlink:href="#ArialMT-6e" x="450.195312"/>
     <use xlink:href="#ArialMT-73" x="505.810547"/>
     <use xlink:href="#ArialMT-20" x="555.810547"/>
     <use xlink:href="#ArialMT-3c" x="583.59375"/>
     <use xlink:href="#ArialMT-20" x="641.992188"/>
     <use xlink:href="#ArialMT-34" x="669.775391"/>
     <use xlink:href="#ArialMT-34" x="725.390625"/>
     <use xlink:href="#ArialMT-29" x="781.005859"/>
    </g>
   </g>
   <g id="text_6">
    <!-- 5050 -->
    <g style="fill: #262626" transform="translate(471.855575 316.877913) scale(0.1 -0.1)">
     <defs>
      <path id="ArialMT-35" d="M 266 1200 
L 856 1250 
Q 922 819 1161 601 
Q 1400 384 1738 384 
Q 2144 384 2425 690 
Q 2706 997 2706 1503 
Q 2706 1984 2436 2262 
Q 2166 2541 1728 2541 
Q 1456 2541 1237 2417 
Q 1019 2294 894 2097 
L 366 2166 
L 809 4519 
L 3088 4519 
L 3088 3981 
L 1259 3981 
L 1013 2750 
Q 1425 3038 1878 3038 
Q 2478 3038 2890 2622 
Q 3303 2206 3303 1553 
Q 3303 931 2941 478 
Q 2500 -78 1738 -78 
Q 1113 -78 717 272 
Q 322 622 266 1200 
z
" transform="scale(0.015625)"/>
      <path id="ArialMT-30" d="M 266 2259 
Q 266 3072 433 3567 
Q 600 4063 929 4331 
Q 1259 4600 1759 4600 
Q 2128 4600 2406 4451 
Q 2684 4303 2865 4023 
Q 3047 3744 3150 3342 
Q 3253 2941 3253 2259 
Q 3253 1453 3087 958 
Q 2922 463 2592 192 
Q 2263 -78 1759 -78 
Q 1097 -78 719 397 
Q 266 969 266 2259 
z
M 844 2259 
Q 844 1131 1108 757 
Q 1372 384 1759 384 
Q 2147 384 2411 759 
Q 2675 1134 2675 2259 
Q 2675 3391 2411 3762 
Q 2147 4134 1753 4134 
Q 1366 4134 1134 3806 
Q 844 3388 844 2259 
z
" transform="scale(0.015625)"/>
     </defs>
     <use xlink:href="#ArialMT-35"/>
     <use xlink:href="#ArialMT-30" x="55.615234"/>
     <use xlink:href="#ArialMT-35" x="111.230469"/>
     <use xlink:href="#ArialMT-30" x="166.845703"/>
    </g>
   </g>
   <g id="text_7">
    <!-- cloud -->
    <g style="fill: #262626" transform="translate(141.903277 443.902611) scale(0.1 -0.1)">
     <defs>
      <path id="ArialMT-75" d="M 2597 0 
L 2597 488 
Q 2209 -75 1544 -75 
Q 1250 -75 995 37 
Q 741 150 617 320 
Q 494 491 444 738 
Q 409 903 409 1263 
L 409 3319 
L 972 3319 
L 972 1478 
Q 972 1038 1006 884 
Q 1059 663 1231 536 
Q 1403 409 1656 409 
Q 1909 409 2131 539 
Q 2353 669 2445 892 
Q 2538 1116 2538 1541 
L 2538 3319 
L 3100 3319 
L 3100 0 
L 2597 0 
z
" transform="scale(0.015625)"/>
      <path id="ArialMT-64" d="M 2575 0 
L 2575 419 
Q 2259 -75 1647 -75 
Q 1250 -75 917 144 
Q 584 363 401 755 
Q 219 1147 219 1656 
Q 219 2153 384 2558 
Q 550 2963 881 3178 
Q 1213 3394 1622 3394 
Q 1922 3394 2156 3267 
Q 2391 3141 2538 2938 
L 2538 4581 
L 3097 4581 
L 3097 0 
L 2575 0 
z
M 797 1656 
Q 797 1019 1065 703 
Q 1334 388 1700 388 
Q 2069 388 2326 689 
Q 2584 991 2584 1609 
Q 2584 2291 2321 2609 
Q 2059 2928 1675 2928 
Q 1300 2928 1048 2622 
Q 797 2316 797 1656 
z
" transform="scale(0.015625)"/>
     </defs>
     <use xlink:href="#ArialMT-63"/>
     <use xlink:href="#ArialMT-6c" x="50"/>
     <use xlink:href="#ArialMT-6f" x="72.216797"/>
     <use xlink:href="#ArialMT-75" x="127.832031"/>
     <use xlink:href="#ArialMT-64" x="183.447266"/>
    </g>
    <!-- (strains &lt; 7) -->
    <g style="fill: #262626" transform="translate(112.739215 454.625736) scale(0.1 -0.1)">
     <use xlink:href="#ArialMT-28"/>
     <use xlink:href="#ArialMT-73" x="33.300781"/>
     <use xlink:href="#ArialMT-74" x="83.300781"/>
     <use xlink:href="#ArialMT-72" x="111.083984"/>
     <use xlink:href="#ArialMT-61" x="144.384766"/>
     <use xlink:href="#ArialMT-69" x="200"/>
     <use xlink:href="#ArialMT-6e" x="222.216797"/>
     <use xlink:href="#ArialMT-73" x="277.832031"/>
     <use xlink:href="#ArialMT-20" x="327.832031"/>
     <use xlink:href="#ArialMT-3c" x="355.615234"/>
     <use xlink:href="#ArialMT-20" x="414.013672"/>
     <use xlink:href="#ArialMT-37" x="441.796875"/>
     <use xlink:href="#ArialMT-29" x="497.412109"/>
    </g>
   </g>
   <g id="text_8">
    <!-- 37735 -->
    <g style="fill: #262626" transform="translate(244.265637 411.532944) scale(0.1 -0.1)">
     <defs>
      <path id="ArialMT-33" d="M 269 1209 
L 831 1284 
Q 928 806 1161 595 
Q 1394 384 1728 384 
Q 2125 384 2398 659 
Q 2672 934 2672 1341 
Q 2672 1728 2419 1979 
Q 2166 2231 1775 2231 
Q 1616 2231 1378 2169 
L 1441 2663 
Q 1497 2656 1531 2656 
Q 1891 2656 2178 2843 
Q 2466 3031 2466 3422 
Q 2466 3731 2256 3934 
Q 2047 4138 1716 4138 
Q 1388 4138 1169 3931 
Q 950 3725 888 3313 
L 325 3413 
Q 428 3978 793 4289 
Q 1159 4600 1703 4600 
Q 2078 4600 2393 4439 
Q 2709 4278 2876 4000 
Q 3044 3722 3044 3409 
Q 3044 3113 2884 2869 
Q 2725 2625 2413 2481 
Q 2819 2388 3044 2092 
Q 3269 1797 3269 1353 
Q 3269 753 2831 336 
Q 2394 -81 1725 -81 
Q 1122 -81 723 278 
Q 325 638 269 1209 
z
" transform="scale(0.015625)"/>
     </defs>
     <use xlink:href="#ArialMT-33"/>
     <use xlink:href="#ArialMT-37" x="55.615234"/>
     <use xlink:href="#ArialMT-37" x="111.230469"/>
     <use xlink:href="#ArialMT-33" x="166.845703"/>
     <use xlink:href="#ArialMT-35" x="222.460938"/>
    </g>
   </g>
  </g>
 </g>
</svg>
